<?xml version="1.0" standalone="no"?><!-- Generator: Gravit.io --><svg xmlns="http://www.w3.org/2000/svg" xmlns:xlink="http://www.w3.org/1999/xlink" style="isolation:isolate" viewBox="0 0 512 512" width="512" height="512"><defs><clipPath id="_clipPath_lfgSUy9R6Ccytaa8ZgpGwbDYUfDFaCsC"><rect width="512" height="512"/></clipPath></defs><g clip-path="url(#_clipPath_lfgSUy9R6Ccytaa8ZgpGwbDYUfDFaCsC)"><g id="#"><path d=" M 494.133 190.654 L 31.767 191.916 L 31.767 191.916 L 39.41 133.29 L 501.749 132.027 L 494.133 190.654 L 494.133 190.654 Z " fill="rgb(0,213,255)"/><path d=" M 469.571 379.721 L 7.121 380.983 L 7.121 380.983 L 14.763 322.357 L 477.187 321.094 L 469.571 379.721 L 469.571 379.721 Z " fill="rgb(0,213,255)"/><path d=" M 161.723 487 L 219.86 31 L 219.86 31 L 160.78 31 L 102.643 487 L 161.723 487 L 161.723 487 Z " fill="rgb(0,213,255)"/><path d=" M 351.723 487 L 409.86 31 L 409.86 31 L 350.78 31 L 292.643 487 L 351.723 487 L 351.723 487 Z " fill="rgb(0,213,255)"/></g></g></svg>